/* XPM */
static char * gcml2_small_xpm[] = {
"128 37 256 2",
"  	c None",
". 	c #020204",
"+ 	c #248420",
"@ 	c #1A481D",
"# 	c #6AC64C",
"$ 	c #6E451F",
"% 	c #5E0B25",
"& 	c #83833E",
"* 	c #6B641D",
"= 	c #C5C5A3",
"- 	c #81AB5D",
"; 	c #CAE2CE",
"> 	c #0E6647",
", 	c #622337",
"' 	c #964921",
") 	c #DBC4C5",
"! 	c #152A24",
"~ 	c #9D6A37",
"{ 	c #B7A46C",
"] 	c #46433B",
"^ 	c #AE884D",
"/ 	c #83231B",
"( 	c #7B090F",
"_ 	c #3F6523",
": 	c #3FA4B0",
"< 	c #6A5520",
"[ 	c #6C7325",
"} 	c #EBE4DF",
"| 	c #3E222E",
"1 	c #DDD4CB",
"2 	c #BFDACF",
"3 	c #829A52",
"4 	c #135235",
"5 	c #7EAB97",
"6 	c #B8B492",
"7 	c #435331",
"8 	c #945429",
"9 	c #F1F4EF",
"0 	c #341221",
"a 	c #46751F",
"b 	c #4B8C54",
"c 	c #603620",
"d 	c #9B743C",
"e 	c #AD925C",
"f 	c #7B1B0D",
"g 	c #E9DAD4",
"h 	c #691214",
"i 	c #833725",
"j 	c #844565",
"k 	c #695457",
"l 	c #353532",
"m 	c #274511",
"n 	c #848375",
"o 	c #576518",
"p 	c #6A7368",
"q 	c #696B78",
"r 	c #1B6564",
"s 	c #995463",
"t 	c #33181C",
"u 	c #C2C7C5",
"v 	c #84472C",
"w 	c #D3B5A9",
"x 	c #1A3A24",
"y 	c #8BB7B1",
"z 	c #880F11",
"A 	c #F3ECE9",
"B 	c #CFD4CB",
"C 	c #C5975C",
"D 	c #95C55A",
"E 	c #DADCC6",
"F 	c #63A45A",
"G 	c #9E7671",
"H 	c #80B45F",
"I 	c #5B490A",
"J 	c #585415",
"K 	c #55846A",
"L 	c #836422",
"M 	c #CDABA7",
"N 	c #845929",
"O 	c #752C22",
"P 	c #E9ECE3",
"Q 	c #77391B",
"R 	c #16839C",
"S 	c #18434C",
"T 	c #694C21",
"U 	c #E1CCCA",
"V 	c #8A9778",
"W 	c #FEFEFC",
"X 	c #99352F",
"Y 	c #ACD4B8",
"Z 	c #6D0524",
"` 	c #2B5521",
" .	c #B4B8AA",
"..	c #A6635F",
"+.	c #695B1C",
"@.	c #9F8379",
"#.	c #CFC9C6",
"$.	c #27352C",
"%.	c #CCDECF",
"&.	c #837633",
"*.	c #A95A23",
"=.	c #B39590",
"-.	c #641440",
";.	c #4A352B",
">.	c #59644F",
",.	c #16726C",
"'.	c #431C55",
").	c #91291D",
"!.	c #6FB767",
"~.	c #9CA238",
"{.	c #D8E6DA",
"].	c #AC4A0C",
"^.	c #C38486",
"/.	c #8A181A",
"(.	c #DADCD8",
"_.	c #30969A",
":.	c #0F1A2A",
"<.	c #B9A59A",
"[.	c #522230",
"}.	c #A1A49A",
"|.	c #F8F4F2",
"1.	c #4E996C",
"2.	c #6D0C26",
"3.	c #676D16",
"4.	c #7D101F",
"5.	c #3F6756",
"6.	c #1A5254",
"7.	c #457469",
"8.	c #857567",
"9.	c #267808",
"0.	c #728214",
"a.	c #9CC6B0",
"b.	c #86C2CC",
"c.	c #24745A",
"d.	c #998539",
"e.	c #326224",
"f.	c #886284",
"g.	c #A1B54F",
"h.	c #5CAE9E",
"i.	c #B17384",
"j.	c #9C958A",
"k.	c #4C0F14",
"l.	c #AC764C",
"m.	c #AE595F",
"n.	c #A2B5B1",
"o.	c #2D6B64",
"p.	c #7D5568",
"q.	c #C8948A",
"r.	c #76934C",
"s.	c #378352",
"t.	c #9F934C",
"u.	c #B08992",
"v.	c #63B6A6",
"w.	c #5F9974",
"x.	c #5A7214",
"y.	c #698876",
"z.	c #4E727C",
"A.	c #ABC4B2",
"B.	c #9D646F",
"C.	c #292727",
"D.	c #2B857C",
"E.	c #38949E",
"F.	c #52A689",
"G.	c #8C3950",
"H.	c #5D5A4F",
"I.	c #70343E",
"J.	c #3B554C",
"K.	c #A5A274",
"L.	c #589552",
"M.	c #315A51",
"N.	c #934843",
"O.	c #3F2561",
"P.	c #28493B",
"Q.	c #53453D",
"R.	c #404B31",
"S.	c #928C20",
"T.	c #1D181E",
"U.	c #4E0D50",
"V.	c #5C94AC",
"W.	c #83C55B",
"X.	c #898C3E",
"Y.	c #7A4C6C",
"Z.	c #D5BEAE",
"`.	c #642C27",
" +	c #747C3C",
".+	c #9E7E1C",
"++	c #988C76",
"@+	c #C4BCAF",
"#+	c #B8AB74",
"$+	c #165C3E",
"%+	c #B6BC74",
"&+	c #A5AB9B",
"*+	c #7D6D74",
"=+	c #431B26",
"-+	c #74A88C",
";+	c #AF6C59",
">+	c #877D74",
",+	c #9676A4",
"'+	c #2E8664",
")+	c #0D0E26",
"!+	c #C5CBA3",
"~+	c #B29C5A",
"{+	c #6D7C6C",
"]+	c #995D73",
"^+	c #134D5C",
"/+	c #B79C92",
"(+	c #227E7C",
"_+	c #935C2B",
":+	c #4A7C37",
"<+	c #848C76",
"[+	c #0C7C91",
"}+	c #286A2E",
"|+	c #C39D97",
"1+	c #832D20",
"2+	c #B2DBAF",
"3+	c #273B1F",
"4+	c #419BAC",
"5+	c #3C6C24",
"6+	c #3F5C1E",
"7+	c #5F1D17",
"8+	c #621B48",
"9+	c #4AA2B0",
"0+	c #889791",
"a+	c #AAC264",
"b+	c #126C64",
"c+	c #C88D86",
"d+	c #3B3C2A",
"e+	c #556C22",
"f+	c #806C2B",
"g+	c #993B36",
"h+	c #BBAB9B",
"i+	c #105C61",
"j+	c #B17D7F",
"k+	c #9A9D89",
"l+	c #805C78",
"m+	c #A48E50",
"n+	c #4A2B35",
"o+	c #9C9C30",
"p+	c #547E60",
"q+	c #AACCB6",
"r+	c #258E9E",
"s+	c #277641",
"t+	c #8DABA2",
"u+	c #3C2C22",
"v+	c #5A3B1F",
"w+	c #86BB5F",
"x+	c #575C19",
"y+	c #528E84",
"z+	c #A3AD4F",
"A+	c #9FBDA8",
"B+	c #986B6F",
"C+	c #9FAD5C",
"D+	c #584E34",
"E+	c #728A5C",
"F+	c #7B1931",
"G+	c #A64C48",
"W W W W W W W W W W W W W W W W W W W W W W W W W W W W W W W W W W W W W W W W W W W W W W W W W W W W W W W W W W W W W W W W W W W W W W W W W W W W W W W W W W W W W W W W W W W W W W W W W W W W W W W W W W A 9 A A A |.|.|.|.W W W W W W W             ",
"W W W W W W W W W W W W W W W W W W W W W W W W W W W W W W W W W W W W W W W W W W W W W W W W W W W W W W W W W W W W W W W W W W W W W W W W W W W W W W W W W W W W W W W W W W %+#+a+{ C U W W W W W |.w j+8 $ D+R.>.N _+d S.S.S.o+~+|+} W W W             ",
"W W W W W W W W W W W W W W W W W W W W W W W W W W W W W W W W W W W W W W W W W W W W W W W W W W W W W W W W W W W W W W W W W W W W W W W W W W W W W W W W W W W W W W W W W W # C+g.h+q.g W W W W w *.8 _+< Q.R.7 >.H.Y.8 _+v i d ~.~+e !+W W             ",
"W W W W W W W W W W W W W W W W W W W W W W W W W W W W W W W W W W W W W W W W W W W W W W W W W W W W W W W W W W W W W W W W W W W W W W W W W W W W W W W W W W W W W W W W W P W.^ { C c+|.W W W M *.N.v $ T R.P.R.H.k p.l...X 1+g+^ ;+G+X.@+W             ",
"W W W W W W W W W W W W W W W W W W W W W W W W W W W W W W W W W W W W W W W W W W W W W W W W W W W W W W W W W W W W W W W W W W W W W W W W W W W W W W W W W W W W W W W W W {.W.D D C c+W W W ) ' 8 _+k D+] R.m R.k l+B+m+d.8 v ~ ~.t...X.*+W             ",
"W W W W W W W W W W W W W W W W W W W W W W W W W W W W W W W W W W W W W W W W W W W W W W W W W W W W W W W W W W W W W W W W W W W W W W W W W W W W W W W W W W W W W W W W W Y - - e e %+W W W e ' i v $ R.H.0+&+@+@+) ) 1 B = <.d & r.<+X.{+(.            ",
"W W W W W W W W W W W W W W W W W W W W W W W W W W W W W W W W W W W W W W W W W W W W W W W W W W W W W W W W W W W W W W W W W W W W W W W W W W W W W W W W W W W W W W W W W K.&.& G+m.%+W W P 0. +< D+] k+W W W W W W W W W W W |.l.d.m+@.++1 . . . . . . ",
"W W W W W W W W P ; q+y t+A+y t+A.%.W W 2 Y 2+!+Z.P W W W W W W P #.6 h+{ ~+=.=.u.j.<.u 9 W W W W W W g M h+h+<.h+W W 9 {.2 Y Y Y 2+; P W W W W W %.q+A+A+a.q+2+{.W W W W W W W W d.f+f+f+L @+W W M $ Q.Q.] ] |.W W W W W W W W W W W W <.k+- - -+%.. . . . . . ",
"W W W W W W 2 v.h.!.1.s+o.7.o.o.7.z.w.{.H # W.z+~+E W W W W ) d.3.* x++.* * +.v O 8+'.O.O.f.} W W W W u.Y.Y.p.l+j+A 6 - !.F y+1.h.h.h.v.F A+W B p+o.7.z.K L.F # W.g.!+W W W W W |.f+x.* +.+.1 W W G O 8+'.O.*+W W W W W W W W W W W W W &+H H F b 2 . . . . . . ",
"W W W W W 5 : v.F.F b 5.M.M.5.5.p.j p.y.F - w+W.D P W W W #+].L x.e+< I x+o * $ 1+-.U.'.'.U., A W W W B+`.I.j Y.G j+3 F F 1.'+'+: v.F.F.b e.0+M.5.5.p.j p.p+F - w+W.D = W W W W g L x.o < I 9 W W g ) ) ) #.g W W W W W W W W W W W W g 3 F F 1.'+{.. . . . . . ",
"W W W W 5 ,._.: 4+y+{+p p >.p 8.f.B.s 8.E+r.3 - d.A W W !+S.' 1++.x+i i T +.* N N.O -.U.'.U.U.u.W W W Y., `.j s ..i.<+L.L.b s+c._.: 4+y+{+p p q p 8.f.B+s 8.E+r.3 - m+;+E W W W M ).o o i N.W W W W W W W W W W W W W W W A g U ) Z.|+G <+L.L.b s.W . . . . . . ",
"W W W ; s+'+_.: E.V.n.#.B 1 B #.Z.C ~ ~ &.&.&.&...W W |.&.&.3.$ I & w 1 g g g g U |+j -.'.U.8+j+W W A Q O I.j ]+B+=.B {.P {.2 y _.4+E.V.0+0+k+&+u E A } g #.m+&.&.&.]+m.6 W W W #+Q T x+Q ;+W W W W W W A w @.f.]+s v I.O O O I.j ]+;+G n y.s.s+5 W . . . . . . ",
"W W W w.b+D.r+r+: P W W W W W W W W Z.*.*.&.f+3.++W W = 8 f++.v V W W W W W W W W W M / , , 8+u.W W ) O O 1+N.]+|+W W W W W W W b.r+4+: h.b.a.9 W W W W W W P f+&.3.* L K.W W W n $ J _ J =.W W W W A u.G.F+-.-.U.O Q Q Q O `.1+N.]+B+>+{+p 7.b 9 W . . . . . . ",
"W W W b+> b+[+[+b.W W W W W W W W W |.*.*.f+3.x.K.W W K.* < O 4.A W W W W W W W W W W W W W W W W W u.% 4.i N.s A W W W W W W W 2 [+R 4+: v.; W W W W W W W W &.3.3.+.J K.W W W G.4.c 6+_ = W W W U 1+/ / h 7+7+2.Z c c % % ( i N.s ]+l+*+H.t+9 W W . . . . . . ",
"W W {.4 4 ^+i+[+2 W W W W W W W W W W .+].' x.e+6 W W  +e+$ F+G.W W W W W W W W W W W W W W W W W W G 2.( ).g+..W W W W W W W W b.R [+r+9+,+|.W W W W W W W |.8 x.e+T T 6 W W P F+2.2.7+O 1 W W g ).z ( 4.f h h 2.Z -.v+c 2.4.).X N.p.,+@+P W W W W . . . . . . ",
"W W q+x S @ i+b+9 W W W W W W W W W }  +L / $ o 1 W W < x+J , B.W W W W W W W W W W W W W W W W W W [ $ f ).v k+W W W W W W W W -+b+[+r+E.@.W W W W W W W W 1 /.T o i i U W W #., -.Z 4.F+|.W W m.z z ( f f h O N...i.=.6 w Z.U } |.W W W W W W W W . . . . . . ",
"W W n.S S S ^+r W W W W W W W W W W !+:+:++.$ x+9 W |.F+v+` ` j.W W W W W W W W W W W W W W W W W W _ 6+T f Q A.W W W W W W W W K i+,.(+_.y W W W W W W W W !+< $ 6+$ i A W W n.` [.-.F+X W W } z z /.( z G+U W W W W W W W W W W W W W W W W W W W . . . . . . ",
"W W }.x ^+i+^+r 9 W W W W W W W W W f+5+e.Q.7 e+W W A % n+| l <+W W W W W W W W W } q.q.c+q.M W W (._ _ a O F+#.W W W W W W W W M.r r ,.'+a.W W W W W W W W t+R.J 6+_ N W W W 8.l ;.'.-.m.W W M / z z z / |.W W W W W W W W W W W W W W W W W W W W . . . . . . ",
"W W &+$.$.^+S ^+y.9 W W W W W W (.n ;.` $+` P.y.W W |.t T.3+0 n+} W W W W W W W W ;+4.4.4.2.B.W W @+}+5+o Q h } W W W W W W W 9 S ^+6.P.o.Y W W W W W W W W K P.P.` 6+{+W W W >.0 '.'.2.^.W W ^ / z z z g+U U U U U U 1 {.(.g 1 1 1 %.%.(.B B A W W . . . . . . ",
"W W %.S S C.S ^+P.n+H.q q q p T v+7 C.@ 4 @ @ V W W W H.$.S t C.n+]+j+^.^.^.c+i.X z z z z ( |+W W /+7 O f I Q W W W W W W W W u S ^+P.u+d+1 W W W W W W W W e.4 @ 3+3+j.W W W P.T.C.'.Z M W W N./ /./.z z z z ( Z Z Z `.7 `.f $ `.c e.$+@ x m u W W . . . . . . ",
"W W W 5.4 $.$.S $.d+d+d+l l ;.O 1+v+u+! @ @ m  .W W W t+x x $.@ 3+-.2.z /.z z / Q 1+Q J I < |.W W >+7 `.f T &.W W W W W W W W }.$.S l d+d+W W W W W W W W P @ ` m x @ n.W W (.x $.@ 3+-.g W W /.z / Q 1+$ J I I ;.7+h c 7 `.f I I v+6+}+> 4 x {.W W . . . . . . ",
"W W W {.R.P.l | ;.7 d+l @ d+c i ).G ;.T.! x 3+(.W W W W p :.0 t =+-.4.4.f Q O I o * +.o e+E W W W a }+}+J $ ~+W W W W W W W W <+l | ;.R.>.W W W W W W W W = ! x 3+x @ (.W W n.:.0 t | -.W W } 1+O T o * < o _ 6+_ _ J e.}+}+J $ < < D+e.}+i+i+W W W . . . . . . ",
"W W W W A j.k Q.u+l ] m @ x P.T |+#.;.T.)+:.$.|.W W W W W  .D+% % 2.4./ v x+3.e+x.* &.6 9 W W W W 9.9.+ + :+!+W W W W W W W W *+Q.Q.l l >+W W W W W W W W 0+)+)+$.x m W W W 0+! t k.2.G.W W #.o e+3.x.* < < T x+e+x.a 9.9.+ + :+[ [ 3.>.c.i+7.W W W . . . . . . ",
"W W W W W W W A 1 #.#.B !+%.P W W j.[.0 . )+H.W W W W W W W W W g ) ) U 1 %.E } } W W W W W W W |.%.%.%.; ; 9 W W W W W W W W g 1 1 U #.} W W W W W W W W {.@+u !+u #.W W W {.!+#.@+) g W W P 1 E E E 1 1 U U 1 E E %.%.%.%.; ; {.E E ; 2 2 {.W W W . . . . . . ",
"W 9 {.} g g P W W W W W W W W W W Q.=+k.)+=+++W W W W W W W W W W W W W W W W W W W W W W W W W W W W W W W W W W W W W W W W W W W W W W W W W W W W W W W W W W W W W W W W W W W W W W W W W W W W W W W W W W W W W W W W W W W W W W W W W W W . . . . . . ",
"W A.p+L l.l.t.|.W W W W W W W W >+T.t =+k.k.1 W W W W W W W W W W W W W W W W W W W W W W W W W W W W W W W W W W W W W W W W W W W W W W W W W W W W W W W W W W W W W W W W W W W W W W W W W W W W W W W W W W W W W W W W W W W W W W W W W W W . . . . . . ",
"W =  +L ~ ^ z+H D A.%+M h+}.>+;.:.:.0 k.k.$ W W W W W W W W W W W W W W W W W W W W W W W W W W W W W W W W W W W W W W W W W W W W W W W W W W W W W W W W W W W W W W W W W W W W W W W W W W W W W W W W W W W W W W W W W W W W W W W W W W W W . . . . . . ",
"W } _+L _+l.C g.3 r.&.v G.I.[.'.! :.T.t | 1 W W W W W W W W W W W W W W W W W W W W W W W W W W W W W W W W W W W W W W W W W W W W W W W W W W W W W W W W W W W W W W W W W W W W W W W W W W W W W W W W W W W W W W W W W W W W W W W W W W W W . . . . . . ",
"W W w 8 8 .+~+C ~.S.*.8 g+F+-.'.C.T.T.C.@+W W W W W W W W W W W W W W W W W W W W W W W W W W W W W W W W W W W W W W W W W W W W W W W W W W W W W W W W W W W W W W W W W W W W W W W W W W W W W W W W W W W W W W W W W W W W W W W W W W W W W . . . . . . ",
"W W W g { m+z+g.g..+g+X g+/.2.'.:.] n A W W W W W W W W W W W W W W W W W W W W W W W W W W W W W W W W W W W W W W W W W W W W W W W W W W W W W W W W W W W W W W W W W W W W W W W W W W W W W W W W W W W W W W W W W W W W W W W W W W W W W W . . . . . . ",
"W W W W W W A P P } U U U U ) 1 9 W W W W W W W W W W W W W W W W W W W W W W W W W W W W W W W W W W W W W W W W W W W W W W W W W W W W W W W W W W W W W W W W W W W W W W W W W W W W W W W W W W W W W W W W W W W W W W W W W W W W W W W W W . . . . . . ",
"            . . . . . . . . . . . . . . . . . . . . . . . . . . . . . . . . . . . . . . . . . . . . . . . . . . . . . . . . . . . . . . . . . . . . . . . . . . . . . . . . . . . . . . . . . . . . . . . . . . . . . . . . . . . . . . . . . . . . . . . . . . ",
"            . . . . . . . . . . . . . . . . . . . . . . . . . . . . . . . . . . . . . . . . . . . . . . . . . . . . . . . . . . . . . . . . . . . . . . . . . . . . . . . . . . . . . . . . . . . . . . . . . . . . . . . . . . . . . . . . . . . . . . . . . . ",
"            . . . . . . . . . . . . . . . . . . . . . . . . . . . . . . . . . . . . . . . . . . . . . . . . . . . . . . . . . . . . . . . . . . . . . . . . . . . . . . . . . . . . . . . . . . . . . . . . . . . . . . . . . . . . . . . . . . . . . . . . . . ",
"            . . . . . . . . . . . . . . . . . . . . . . . . . . . . . . . . . . . . . . . . . . . . . . . . . . . . . . . . . . . . . . . . . . . . . . . . . . . . . . . . . . . . . . . . . . . . . . . . . . . . . . . . . . . . . . . . . . . . . . . . . . ",
"            . . . . . . . . . . . . . . . . . . . . . . . . . . . . . . . . . . . . . . . . . . . . . . . . . . . . . . . . . . . . . . . . . . . . . . . . . . . . . . . . . . . . . . . . . . . . . . . . . . . . . . . . . . . . . . . . . . . . . . . . . . ",
"            . . . . . . . . . . . . . . . . . . . . . . . . . . . . . . . . . . . . . . . . . . . . . . . . . . . . . . . . . . . . . . . . . . . . . . . . . . . . . . . . . . . . . . . . . . . . . . . . . . . . . . . . . . . . . . . . . . . . . . . . . . "};
