/* XPM */
static char * stock_top_xpm[] = {
"24 24 89 1",
" 	c None",
".	c #000000",
"+	c #030303",
"@	c #D4D7D2",
"#	c #DDDEDC",
"$	c #DEDFDD",
"%	c #D9DAD7",
"&	c #95B288",
"*	c #94B187",
"=	c #93B085",
"-	c #84A275",
";	c #739365",
">	c #050505",
",	c #CED2CC",
"'	c #D4D5D2",
")	c #D3D4D1",
"!	c #84A676",
"~	c #86A777",
"{	c #7E9D6E",
"]	c #131313",
"^	c #0D0D0D",
"/	c #D8DAD5",
"(	c #839C77",
"_	c #040404",
":	c #111111",
"<	c #8CA680",
"[	c #010101",
"}	c #E4E3E3",
"|	c #E5E4E4",
"1	c #85A278",
"2	c #6A875B",
"3	c #E9E8E8",
"4	c #EAE8EA",
"5	c #86A578",
"6	c #7A966C",
"7	c #E3E2E2",
"8	c #EDEBED",
"9	c #F0ECF0",
"0	c #8FAE82",
"a	c #7F9C71",
"b	c #678458",
"c	c #E9E7E8",
"d	c #F0EDEF",
"e	c #F3EFF3",
"f	c #8CAE7D",
"g	c #83A374",
"h	c #78946A",
"i	c #EEEBED",
"j	c #F3EFF2",
"k	c #F6F2F6",
"l	c #8EAF7F",
"m	c #88A979",
"n	c #829E74",
"o	c #688559",
"p	c #F2EEF1",
"q	c #F4F0F4",
"r	c #8BAE7B",
"s	c #87AA77",
"t	c #89A77B",
"u	c #739165",
"v	c #E2E1E1",
"w	c #ECE9EC",
"x	c #F2F0F2",
"y	c #F5F1F5",
"z	c #8AAD7A",
"A	c #89AC79",
"B	c #8FAE81",
"C	c #7F9D71",
"D	c #68865A",
"E	c #D9D9D7",
"F	c #EAE9E9",
"G	c #EDECEC",
"H	c #ECECEC",
"I	c #E6E6E6",
"J	c #8EAD7F",
"K	c #8DAC7F",
"L	c #8CAB7F",
"M	c #809E72",
"N	c #6C8A5D",
"O	c #B9BEB5",
"P	c #BBBFB7",
"Q	c #BDC1B8",
"R	c #C0C3BC",
"S	c #BFC2BB",
"T	c #BEC2BB",
"U	c #739264",
"V	c #749465",
"W	c #749165",
"X	c #607C53",
"                        ",
"                        ",
"                        ",
"     ..............     ",
"     +@###$%&&*=-;.     ",
"     >,'))))!!~~{;.     ",
"     +]............     ",
"           ..           ",
"          ^/(_          ",
"          :$<[          ",
"         .}|12.         ",
"         .3456.         ",
"        .7890ab.        ",
"        .cdefgh.        ",
"       .7ijklmno.       ",
"       .cpqkrstu.       ",
"      .vwxyqzABCD.      ",
"      .EFGHIJKLMN.      ",
"     .OPQRSTUUVWoX.     ",
"     ..............     ",
"                        ",
"                        ",
"                        ",
"                        "};
